<svg xmlns="http://www.w3.org/2000/svg" viewBox="0 0 256 256" width="256" height="256" fill="none">
  <rect x="16" y="16" width="224" height="224" rx="28" fill="#00599C"/>
  <path d="M81 128c0-26.51 21.49-48 48-48 15.13 0 28.62 7.05 37.22 18h-23.9c-5.4-3.9-8.8-5-13.32-5-13.81 0-25 11.19-25 25s11.19 25 25 25c4.52 0 7.92-1.1 13.32-5h23.9c-8.6 10.95-22.09 18-37.22 18-26.51 0-48-21.49-48-48z" fill="#FFFFFF"/>
  <rect x="156" y="104" width="44" height="12" rx="2" fill="#FFFFFF"/>
  <rect x="156" y="140" width="44" height="12" rx="2" fill="#FFFFFF"/>
</svg>
